Coordinates
version=1
nRows=19
nColumns=24
inDegrees=yes

Units are S.I. units (second, meters, Newtons, ...)
Angles are in degrees.

endheader
time	pelvis_tilt	pelvis_list	pelvis_rotation	pelvis_tx	pelvis_ty	pelvis_tz	hip_flexion_r	hip_adduction_r	hip_rotation_r	knee_angle_r	ankle_angle_r	subtalar_angle_r	mtp_angle_r	hip_flexion_l	hip_adduction_l	hip_rotation_l	knee_angle_l	ankle_angle_l	subtalar_angle_l	mtp_angle_l	lumbar_extension	lumbar_bending	lumbar_rotation
      1.13783333	     -1.68266287	     -3.58463572	     -3.46197504	     -0.16367377	      1.00893711	      0.35490059	    -10.11833079	      8.59781875	      4.34897718	    -13.38715429	     16.23023747	     -1.41090008	      3.23366902	     24.42639707	     -2.78477453	     -3.74172602	      2.44990310	      7.61192154	     -1.60122115	     -2.35919290	     -1.76088554	      1.44619405	     10.06946082
      1.14200000	     -1.72122373	     -3.45932568	     -3.55398391	     -0.15812497	      1.00826269	      0.35476772	    -10.15987062	      8.43844161	      4.37083923	    -13.89260031	     16.30497632	     -1.41510438	      3.25393579	     24.55195795	     -2.60549520	     -3.74405912	      1.79298915	      7.84492429	     -1.56960228	     -2.21664710	     -1.68758806	      1.29905301	     10.17019669
      1.14616667	     -1.70643104	     -3.32138082	     -3.62626701	     -0.15250528	      1.00768944	      0.35462912	    -10.27327514	      8.27256076	      4.43801827	    -14.36798252	     16.31328517	     -1.51444533	      3.26070314	     24.59030249	     -2.40425250	     -3.64845746	      1.16520208	      8.00017579	     -1.69375457	     -2.17909883	     -1.69112160	      1.12665414	     10.19131818
      1.15033333	     -1.75868191	     -3.18441040	     -3.69703898	     -0.14683669	      1.00702661	      0.35450021	    -10.29390965	      8.11654308	      4.50894614	    -14.89170087	     16.35099545	     -1.57812999	      3.29103943	     24.70812050	     -2.21097900	     -3.56444965	      0.49098813	      8.15095684	     -1.77718718	     -2.06355279	     -1.56566289	      0.93382647	     10.28349280
      1.15450000	     -1.74437264	     -3.04386450	     -3.76822752	     -0.14114236	      1.00649012	      0.35433755	    -10.36998135	      7.94811052	      4.55642064	    -15.44222102	     16.30542219	     -1.68072847	      3.30324830	     24.73532692	     -2.00928884	     -3.49419625	     -0.16095298	      8.22339525	     -1.91324159	     -2.01858129	     -1.56346583	      0.77799455	     10.31510463
      1.15866667	     -1.77556586	     -2.91048024	     -3.84343722	     -0.13539300	      1.00590863	      0.35417495	    -10.37329050	      7.78564663	      4.56797873	    -16.04584826	     16.29792885	     -1.64068831	      3.62545847	     24.79681563	     -1.81729142	     -3.35235549	     -0.80458349	      8.23535528	     -2.20587996	     -1.14621870	     -1.43092625	      0.59886154	     10.59727592
      1.16283333	     -1.77847479	     -2.75849925	     -3.90364308	     -0.12959791	      1.00538010	      0.35400024	    -10.40181890	      7.61357418	      4.62066866	    -16.65867793	     16.21826315	     -1.80940951	      3.64731240	     24.81907640	     -1.60459792	     -3.28450960	     -1.43107873	      8.18788788	     -2.33905060	     -1.09132025	     -1.38045088	      0.40350292	     10.55432897
      1.16700000	     -1.84359843	     -2.64040711	     -3.96294374	     -0.12380057	      1.00478686	      0.35380005	    -10.33929239	      7.48200308	      4.66873955	    -17.31795855	     16.09421807	     -1.91735825	      3.79056349	     24.88989731	     -1.42250281	     -3.06890196	     -2.02335838	      7.99681615	     -2.74670288	     -0.81199707	     -1.22702708	      0.26329727	     10.58684344
      1.17116667	     -1.81524538	     -2.48010364	     -4.01011362	     -0.11789777	      1.00436420	      0.35357942	    -10.37492083	      7.29385991	      4.66694864	    -17.97714525	     15.94054634	     -2.02260829	      3.83730487	     24.84976349	     -1.19404043	     -2.99423183	     -2.60615579	      7.87372184	     -2.94599570	     -0.72821935	     -1.16850434	      0.03301031	     10.60536303
      1.17533333	     -1.87220309	     -2.35254036	     -4.06222057	     -0.11203728	      1.00382952	      0.35331490	    -10.27271813	      7.14136785	      4.64591447	    -18.72866014	     15.80352499	     -2.01276727	      4.07348254	     24.86457639	     -0.99078740	     -2.66367972	     -3.09896093	      7.47280027	     -3.60352762	     -0.37974812	     -1.03483240	     -0.10192182	     10.71017566
      1.17950000	     -1.89194343	     -2.20353082	     -4.10668449	     -0.10609844	      1.00339199	      0.35303362	    -10.20239419	      6.96041048	      4.59107284	    -19.48726658	     15.60118429	     -2.03201500	      4.41820638	     24.82852313	     -0.76472394	     -2.41462303	     -3.57358627	      7.05930727	     -4.15064932	      0.07388968	     -0.92722348	     -0.28833863	     10.72942103
      1.18366667	     -1.86186382	     -2.04092784	     -4.12938223	     -0.10010038	      1.00305781	      0.35271922	    -10.18041127	      6.76322940	      4.51741169	    -20.24051480	     15.23223812	     -2.15257851	      6.94631977	     24.73817763	     -0.52171338	     -2.27617386	     -4.03803897	      6.62344506	     -4.52213906	      3.00681880	     -0.87034838	     -0.50994481	     10.70740323
      1.18783333	     -1.88953128	     -1.89186039	     -4.17214876	     -0.09412301	      1.00265930	      0.35237512	    -10.04027004	      6.56483413	      4.36970231	    -21.11033980	     15.00765397	     -2.02363791	      7.01632293	     24.70735574	     -0.30046346	     -2.12059226	     -4.50186383	      6.17803323	     -4.91702602	      3.03572500	     -0.74626588	     -0.68330128	     10.77376369
      1.19200000	     -1.88623355	     -1.72725282	     -4.19829047	     -0.08810214	      1.00235382	      0.35199028	     -9.91936750	      6.34442919	      4.19281853	    -21.99468421	     14.70984147	     -1.92657877	      7.15277487	     24.61699161	     -0.05259905	     -1.91776788	     -4.90542416	      5.63951841	     -5.41931251	      3.09949286	     -0.65466437	     -0.88523487	     10.78502524
      1.19616667	     -1.89178355	     -1.56276678	     -4.21801438	     -0.08206520	      1.00206757	      0.35156888	     -9.76056797	      6.11514169	      3.96885520	    -22.92468648	     14.36534066	     -1.79048185	      7.35741773	     24.53406306	      0.19500716	     -1.72818532	     -5.30290594	      5.09028388	     -5.88515024	      3.19358205	     -0.54804011	     -1.08348232	     10.78135255
      1.20033333	     -1.88074010	     -1.38152859	     -4.23529848	     -0.07599713	      1.00185348	      0.35111984	     -9.59308729	      5.85419531	      3.69563262	    -23.89347129	     13.98337296	     -1.60448419	      7.63011323	     24.42255298	      0.45963463	     -1.56361397	     -5.67834024	      4.51033018	     -6.33051388	      3.31195243	     -0.45876010	     -1.30243545	     10.77346217
      1.20450000	     -1.86584729	     -1.19678036	     -4.24368472	     -0.06991882	      1.00167918	      0.35063271	     -9.40097933	      5.57714094	      3.37277944	    -24.90416404	     13.54821672	     -1.38427799	      7.99456281	     24.30472957	      0.72956044	     -1.40694761	     -6.04950215	      3.92990846	     -6.75953233	      3.46016205	     -0.37258870	     -1.51955323	     10.74937976
      1.20866667	     -1.84720804	     -1.00814788	     -4.24705207	     -0.06384119	      1.00154412	      0.35012478	     -9.18470442	      5.28464371	      3.01273231	    -25.95496379	     13.06383355	     -1.14018837	      8.40324951	     24.18717161	      1.00001374	     -1.29176928	     -6.42965321	      3.36645721	     -7.11008516	      3.61305742	     -0.29201586	     -1.75272733	     10.71295919
      1.21283333	     -1.80946868	     -0.83696157	     -4.24023540	     -0.05774628	      1.00150018	      0.34958156	     -8.98120117	      5.00106993	      2.63833388	    -26.98159508	     12.28608086	     -1.03688339	     12.74988254	     24.04635929	      1.25336864	     -1.18901165	     -6.80964810	      2.80785272	     -7.43829521	      5.12007917	     -0.23006414	     -1.92994470	     10.67079417
